<?xml version="1.0" standalone="no"?>
<!DOCTYPE svg PUBLIC "-//W3C//DTD SVG 20010904//EN"
 "http://www.w3.org/TR/2001/REC-SVG-20010904/DTD/svg10.dtd">
<svg version="1.0" xmlns="http://www.w3.org/2000/svg"
 width="934.000000pt" height="934.000000pt" viewBox="0 0 934.000000 934.000000"
 preserveAspectRatio="xMidYMid meet">
<metadata>
Created by potrace 1.14, written by Peter Selinger 2001-2017
</metadata>
<g transform="translate(0.000000,934.000000) scale(0.100000,-0.100000)"
fill="#000000" stroke="none">
<path d="M4477 9254 c-1 -1 -55 -5 -120 -8 -65 -4 -126 -9 -136 -11 -9 -2 -51
-6 -92 -10 -40 -4 -76 -8 -79 -10 -3 -2 -32 -6 -64 -9 -150 -16 -471 -90 -686
-158 -343 -107 -741 -287 -1005 -453 -122 -76 -220 -140 -225 -145 -3 -3 -36
-28 -75 -55 -66 -46 -237 -178 -261 -200 -6 -5 -37 -32 -70 -60 -76 -65 -386
-373 -450 -448 -27 -33 -54 -64 -59 -70 -277 -318 -581 -826 -748 -1252 -33
-82 -105 -286 -111 -310 -1 -5 -14 -48 -28 -95 -28 -90 -81 -307 -94 -380 -3
-14 -11 -61 -19 -105 -8 -44 -17 -98 -21 -120 -3 -22 -7 -49 -9 -61 -2 -11 -6
-52 -10 -90 -4 -38 -9 -76 -10 -86 -24 -127 -24 -731 0 -903 2 -16 7 -55 10
-85 4 -30 8 -62 10 -71 1 -8 6 -40 9 -70 8 -70 12 -93 37 -214 12 -55 22 -107
24 -115 12 -61 50 -204 80 -305 183 -606 473 -1141 886 -1640 78 -94 385 -408
474 -485 379 -329 771 -578 1212 -769 130 -56 412 -162 473 -176 8 -2 47 -13
85 -25 66 -19 240 -63 295 -74 156 -30 198 -38 215 -41 30 -5 255 -35 300 -40
215 -25 635 -25 900 -1 37 4 168 19 175 21 3 0 32 5 65 9 33 4 125 21 205 37
80 16 156 32 170 34 14 3 50 12 80 20 30 9 80 23 110 31 72 19 239 72 265 83
11 5 61 24 110 42 289 105 659 296 935 483 79 53 324 236 375 281 17 14 55 47
85 72 155 131 406 398 621 660 32 40 197 278 233 336 22 37 54 89 70 115 16
26 42 72 59 102 17 30 41 73 54 95 12 22 26 47 29 55 4 8 29 60 55 115 90 190
174 403 243 622 33 104 112 420 122 488 2 11 5 29 7 40 3 11 10 56 17 100 6
44 13 91 16 105 2 14 7 54 10 90 3 36 8 76 10 90 24 152 23 699 -2 905 -9 75
-34 260 -39 290 -12 69 -27 152 -32 175 -4 14 -7 31 -9 39 -21 108 -105 416
-131 481 -3 8 -7 20 -8 25 -2 6 -19 55 -40 110 -177 476 -414 892 -729 1285
-131 163 -142 176 -336 371 -168 170 -345 324 -512 446 -82 61 -269 187 -323
220 -582 348 -1166 557 -1780 638 -27 3 -61 8 -75 10 -24 3 -53 6 -225 21 -63
5 -512 13 -518 8z"/>
</g>
</svg>
