<?xml version="1.0" standalone="no"?>
<!DOCTYPE svg PUBLIC "-//W3C//DTD SVG 20010904//EN"
 "http://www.w3.org/TR/2001/REC-SVG-20010904/DTD/svg10.dtd">
<svg version="1.0" xmlns="http://www.w3.org/2000/svg"
 width="752.000000pt" height="752.000000pt" viewBox="0 0 752.000000 752.000000"
 preserveAspectRatio="xMidYMid meet">
<metadata>
Created by potrace 1.14, written by Peter Selinger 2001-2017
</metadata>
<g transform="translate(0.000000,752.000000) scale(0.100000,-0.100000)"
fill="#000000" stroke="none">
<path d="M881 7499 c-17 -10 -34 -27 -40 -38 -19 -35 -39 -49 -65 -44 -14 3
-26 9 -26 13 0 13 -106 80 -127 80 -22 0 -40 -29 -48 -80 -8 -52 -22 -111 -29
-117 -3 -4 -16 -1 -29 5 -37 18 -81 21 -100 8 -9 -8 -29 -47 -43 -87 -31 -87
-31 -86 -68 -93 -46 -8 -60 -30 -63 -92 -2 -51 9 -89 29 -104 6 -5 41 -77 43
-90 0 -3 4 -11 8 -17 13 -20 15 -95 4 -126 -5 -16 -36 -55 -69 -88 -33 -32
-57 -59 -54 -59 4 0 -4 -15 -17 -32 -21 -28 -51 -87 -88 -173 -16 -37 -38
-105 -34 -105 2 0 -3 -16 -11 -35 -7 -19 -14 -39 -14 -45 0 -15 34 -12 67 5
29 16 79 36 99 40 6 2 36 10 65 18 30 9 72 17 93 19 l40 3 16 -80 c18 -85 40
-132 94 -205 19 -25 37 -61 40 -81 5 -35 -16 -131 -34 -154 -23 -30 -172 -334
-203 -415 -37 -98 -54 -152 -71 -232 -27 -124 -38 -239 -37 -383 1 -137 2
-164 16 -275 8 -67 11 -89 25 -160 6 -30 13 -64 15 -75 3 -21 11 -65 20 -105
3 -14 12 -54 19 -90 24 -119 77 -344 101 -435 13 -50 26 -101 29 -115 20 -94
29 -119 42 -124 8 -3 14 0 14 8 0 7 7 26 15 43 8 16 16 42 17 56 3 35 16 21
22 -23 15 -103 54 -223 109 -330 36 -71 164 -279 194 -315 4 -5 14 -22 22 -37
8 -16 20 -28 28 -28 7 0 13 1 13 3 0 2 -18 58 -40 126 -50 152 -50 166 -7 121
40 -42 147 -184 147 -196 0 -4 6 -15 14 -23 8 -9 56 -97 106 -196 51 -99 101
-192 111 -207 11 -14 19 -29 19 -32 0 -18 139 -162 185 -191 39 -25 93 -55
100 -55 15 0 1 25 -34 61 -37 39 -97 136 -89 144 2 2 30 -22 63 -53 74 -71
148 -125 243 -180 70 -40 107 -47 81 -16 -6 8 -8 14 -3 14 5 0 4 4 -2 8 -15
10 -94 151 -94 168 0 8 -4 14 -9 14 -8 0 -24 41 -18 47 2 1 16 -9 32 -23 17
-14 42 -33 58 -42 15 -9 27 -20 27 -24 0 -4 4 -8 9 -8 23 0 322 -206 387 -267
98 -92 151 -177 281 -448 29 -60 67 -132 83 -158 17 -27 30 -50 30 -53 0 -7
17 -27 72 -88 66 -72 125 -100 213 -102 39 0 69 -5 68 -10 -3 -11 -60 -155
-85 -211 -10 -24 -18 -47 -18 -53 0 -5 -9 -25 -20 -45 -11 -19 -20 -37 -20
-40 0 -5 -32 -69 -121 -244 l-33 -63 -85 7 c-161 14 -196 15 -246 5 -43 -9
-130 -45 -145 -60 -27 -27 -157 -34 -255 -14 -80 17 -188 9 -241 -16 -53 -26
-134 -101 -158 -147 -18 -35 -46 -150 -38 -158 14 -14 41 -2 51 23 15 32 104
105 146 119 69 22 166 6 294 -49 83 -36 101 -40 150 -35 31 3 78 15 105 27 65
29 138 28 268 -6 101 -27 188 -34 258 -22 36 6 121 37 130 47 27 31 145 43
250 27 65 -11 160 -43 242 -82 39 -20 74 -32 79 -27 9 10 -66 143 -105 183
-16 17 -26 33 -23 37 17 16 143 40 204 37 79 -3 98 -6 178 -34 33 -11 71 -23
85 -26 14 -2 32 -7 40 -10 8 -3 56 -5 105 -3 50 1 132 2 183 1 50 -1 92 2 92
6 -1 36 -132 108 -257 141 -38 10 -170 75 -183 90 -3 3 -12 8 -20 10 -23 5
-44 9 -52 10 -4 1 -13 8 -21 16 -18 18 -11 55 33 176 35 96 137 307 175 363
14 20 25 39 25 42 0 12 147 202 189 245 45 45 104 72 190 84 14 2 35 6 46 8
11 3 41 7 66 11 205 30 337 69 434 129 94 58 185 121 185 128 0 5 5 9 10 9 11
0 50 34 154 133 62 58 60 61 -14 30 -28 -11 -132 -33 -159 -33 -9 0 13 16 49
36 91 51 146 89 250 177 60 50 97 90 173 186 60 76 164 178 315 310 34 30 59
57 57 62 -6 9 -63 1 -87 -12 -10 -5 -18 -7 -18 -5 0 7 -66 -17 -129 -48 -30
-14 -56 -24 -58 -22 -2 2 6 15 19 28 13 13 50 57 83 98 78 98 112 136 157 179
66 65 86 81 97 81 6 0 11 9 11 19 0 17 -6 19 -42 15 -65 -7 -158 -35 -203 -61
-50 -29 -58 -29 -49 -1 11 37 95 141 172 214 214 203 282 274 332 344 14 19
32 44 41 55 9 11 40 48 69 83 53 64 155 152 178 152 6 0 12 5 12 10 0 6 6 10
14 10 7 0 25 9 40 21 15 11 32 22 39 23 37 6 91 43 153 104 51 50 57 69 14 47
-16 -8 -32 -15 -35 -15 -3 0 -18 -6 -33 -13 -15 -7 -44 -15 -64 -16 -35 -2
-38 -1 -38 25 0 20 16 43 63 88 34 34 80 75 102 91 48 34 125 113 125 127 0 7
-13 8 -32 4 -18 -3 -51 -9 -73 -14 -22 -4 -50 -6 -62 -4 -19 3 -21 6 -12 29
11 29 108 143 179 211 25 24 104 83 175 132 129 88 180 132 205 180 10 20 11
25 0 28 -59 20 -178 91 -218 131 -27 27 -59 52 -71 56 -45 14 -17 40 119 107
153 76 207 120 287 238 58 85 94 125 141 158 42 31 41 48 -5 57 -21 4 -81 20
-133 37 -52 17 -102 32 -110 33 -8 2 -15 4 -15 5 0 2 -22 7 -75 17 -37 7 -115
9 -115 3 0 -1 -11 -4 -25 -6 -22 -4 -23 -3 -10 10 8 8 63 41 122 73 183 99
257 166 271 244 9 45 -44 105 -102 115 -14 3 -30 10 -36 15 -10 10 -6 15 46
49 13 8 44 36 70 61 50 49 67 95 55 145 -18 70 -82 84 -275 59 l-64 -8 6 34
c3 19 9 45 13 59 4 14 8 72 10 130 2 97 0 110 -24 160 -22 44 -36 59 -72 76
-39 19 -49 20 -85 10 -52 -16 -61 -12 -85 35 -30 58 -68 74 -175 73 -50 -1
-119 -8 -154 -18 -64 -16 -163 -75 -205 -121 -62 -68 -117 -134 -217 -260 -61
-77 -115 -141 -120 -143 -5 -2 -9 -8 -9 -13 0 -6 -9 -19 -20 -31 -10 -12 -45
-52 -77 -90 -32 -38 -86 -98 -120 -134 -35 -36 -63 -67 -63 -69 0 -7 -71 -75
-125 -120 -33 -28 -65 -55 -72 -62 -7 -6 -29 -21 -50 -34 -21 -13 -40 -26 -43
-29 -10 -14 -119 -70 -201 -103 -138 -57 -275 -97 -419 -123 -25 -4 -47 -8
-50 -9 -14 -3 -90 -15 -130 -20 -25 -4 -56 -8 -70 -10 -14 -2 -50 -6 -80 -10
-30 -3 -71 -8 -90 -10 -19 -2 -64 -7 -100 -11 -36 -3 -78 -8 -95 -10 -16 -1
-61 -5 -100 -8 -38 -3 -79 -8 -90 -10 -11 -2 -54 -7 -95 -12 -41 -4 -77 -8
-80 -9 -10 -2 -136 -18 -170 -21 -59 -6 -263 -5 -310 1 -25 3 -82 15 -127 25
-300 70 -525 235 -828 605 -49 61 -93 112 -97 113 -5 2 -8 8 -8 13 0 5 -19 35
-43 66 -24 32 -79 112 -122 178 -123 187 -167 244 -258 337 -155 156 -352 263
-504 272 -34 2 -38 5 -36 27 1 13 2 38 4 54 3 50 1 54 -44 83 -40 25 -43 31
-44 69 -1 47 -22 88 -50 95 -10 3 -44 4 -76 3 l-57 -1 -17 45 c-29 80 -49 92
-102 60z m2649 -6432 c-112 -391 -149 -459 -345 -633 l-80 -72 -95 4 c-52 2
-96 7 -98 11 -1 4 4 15 11 24 31 36 87 156 126 269 13 36 29 77 37 93 9 15 13
27 9 27 -3 0 2 15 12 33 9 17 18 34 18 37 6 22 31 70 61 118 69 109 158 175
252 188 22 3 57 11 78 19 22 8 40 9 42 4 2 -5 -11 -60 -28 -122z"/>
</g>
</svg>
