<?xml version="1.0" encoding="UTF-8"?>
<svg id="Layer_2" data-name="Layer 2" xmlns="http://www.w3.org/2000/svg" viewBox="0 0 36.12 47.65">
  <defs>
    <style>
      .cls-1 {
        fill: #f47c2c;
      }
    </style>
  </defs>
  <g id="Layer_1-2" data-name="Layer 1">
    <g>
      <path class="cls-1" d="m27.98,11.57c1.04-.28,2.05-.56,3.09-.84,1.69,10.03,3.37,20.05,5.05,30.07-8.44,2.29-16.84,4.57-25.24,6.85-.09-.04-.11-.13-.14-.21-.24-.62-.46-1.24-.7-1.85-.24-.63-.48-1.25-.72-1.88-.17-.44-.33-.88-.5-1.32-.16-.42-.32-.85-.48-1.27-.18-.48-.37-.97-.55-1.45-.17-.44-.34-.88-.51-1.32-.17-.43-.33-.86-.49-1.3-.24-.63-.48-1.27-.73-1.9-.17-.46-.35-.92-.52-1.38-.17-.44-.34-.88-.51-1.32-.17-.43-.33-.86-.49-1.3-.19-.48-.37-.97-.56-1.45-.17-.44-.33-.88-.5-1.33-.16-.41-.31-.83-.47-1.24-.25-.65-.5-1.3-.75-1.96-.24-.63-.49-1.27-.73-1.9-.16-.42-.32-.85-.48-1.27-.18-.48-.37-.97-.56-1.45-.17-.45-.34-.9-.5-1.35.18-.12,2.46-.76,3.07-.87,1.84,1.98,4.05,3.39,6.67,4.16,2.6.76,5.22.78,7.84.07,2.63-.71,4.88-2.05,6.75-4.03,1.86-1.97,3.06-4.3,3.65-6.95Z"/>
      <path class="cls-1" d="m8.58,2.46c.09.12.13.22.16.32.3.87.6,1.75.9,2.62.3.85.6,1.69.9,2.53.22.63.42,1.27.66,1.9.63,1.63,1,3.33,1.47,5,.63,2.28,1.24,4.56,1.86,6.84.03.1.07.19.06.32-.41.05-.82.03-1.24.03-.19-.23-.31-.51-.45-.78-.88-1.59-1.75-3.18-2.62-4.77-.21-.39-.42-.78-.64-1.16-.13-.22-.21-.47-.29-.7-.23-.62-.43-1.25-.65-1.87-.21-.6-.43-1.19-.64-1.79-.1-.28-.2-.57-.3-.85-.3-.87-.6-1.75-.9-2.62-.38-1.09-.78-2.19-1.16-3.28-.07-.2-.11-.4-.17-.63,1-.38,2.03-.71,3.07-1.09Z"/>
      <path class="cls-1" d="m11.84,7.66l3.14-.85s.02,0,.03.01c0,0,.02.01.02.02.03.11.07.21.1.32,1.25,4.6,2.5,9.21,3.76,13.84-1.03.44-2.09.71-3.19.87-1.29-4.75-2.57-9.48-3.86-14.22Z"/>
      <path class="cls-1" d="m20.71,4.24c1.09-.03,2.17-.06,3.25-.09.07.08.06.15.07.23.09,3.4.18,6.79.27,10.19.02.68.04,1.36.07,2.03,0,.19-.04.34-.17.49-.83,1-1.77,1.87-2.85,2.6-.05.03-.09.06-.14.09-.01,0-.03,0-.05,0-.06-.19-.49-15.14-.45-15.55Z"/>
      <path class="cls-1" d="m15.52.55c1.07-.16,2.14-.32,3.22-.48.12.25.1.52.15.78.1.57.17,1.14.25,1.71.08.57.17,1.14.25,1.71.07.49.13.97.22,1.45.1.54.09,1.09.11,1.63.09,3.27.18,6.55.27,9.82.03,1.03.05,2.05.08,3.08,0,.15-.01.26-.19.29-.07-.07-.08-.17-.1-.26-1-3.68-2-7.37-3-11.05-.12-.46-.15-.93-.23-1.4-.1-.58-.18-1.16-.26-1.73-.08-.55-.16-1.1-.24-1.65-.08-.56-.17-1.12-.25-1.68-.08-.56-.17-1.12-.24-1.68-.02-.17-.11-.34-.04-.54Z"/>
      <path class="cls-1" d="m1.83,10.18c.97-.55,1.93-1.06,2.92-1.61,2.44,4.44,4.87,8.86,7.32,13.31-.09.02-.16,0-.23,0-1.48-.22-2.87-.68-4.2-1.35-.14-.07-.22-.18-.28-.3-.55-1-1.1-1.99-1.64-2.99-1.1-2.01-2.21-4.02-3.32-6.04-.18-.33-.36-.66-.56-1.02Z"/>
      <path class="cls-1" d="m25.37,15.28c-.02-.5-.03-1.01-.05-1.51-.07-2.45-.13-4.91-.2-7.36-.03-.92-.05-1.84-.09-2.77-.01-.36-.21-.54-.58-.54-.21,0-.41,0-.65.01-.07-.5-.05-1-.06-1.49-.02-.5-.03-.99-.04-1.52,1.11-.03,2.21-.06,3.33-.09.1,3.56.2,7.09.29,10.64-.23.12-.31.34-.36.58-.23,1.14-.6,2.24-1.12,3.28-.13.27-.27.53-.42.79-.02,0-.04-.01-.06-.02Z"/>
    </g>
  </g>
</svg>