<?xml version="1.0" encoding="UTF-8"?>
<svg id="Layer_2" data-name="Layer 2" xmlns="http://www.w3.org/2000/svg" viewBox="0 0 44.4 52.12">
  <defs>
    <style>
      .cls-1 {
        fill: #f47c2c;
      }
    </style>
  </defs>
  <g id="Layer_1-2" data-name="Layer 1">
    <g>
      <path class="cls-1" d="m44.02,25.19c-.06-.02-.09,0-.12.05-.6.79-1.85.82-2.5.37-.34-.23-.63-.5-.87-.85-.78-1.14-1.61-2.23-2.47-3.31-1.15-1.43-2.38-2.78-3.69-4.07-.88-.87-1.8-1.71-2.76-2.5-.65-.54-1.31-1.07-1.98-1.58-1.16-.89-2.33-1.75-3.57-2.51-.92-.56-1.84-1.13-2.8-1.64-.56-.3-1.11-.61-1.68-.89-.81-.4-1.63-.78-2.46-1.14-1.39-.61-2.81-1.13-4.24-1.61-1.49-.5-3.01-.91-4.55-1.24-.37-.08-.75-.15-1.12-.24-.93-.23-1.64-.95-1.69-1.97C7.46,1,8.37-.1,9.56,0c.62.06,1.22.23,1.82.36,1.14.25,2.26.55,3.38.88,1.48.45,2.95.95,4.39,1.52,1.11.44,2.2.91,3.28,1.41.65.3,1.29.64,1.92.97.98.51,1.96,1.03,2.88,1.64.05.04.11.05.18.03,1.16.77,2.33,1.54,3.49,2.31.02.11.11.16.19.22.88.59,1.69,1.26,2.51,1.93.82.66,1.62,1.35,2.39,2.07,1.22,1.13,2.38,2.31,3.49,3.55,1.64,1.83,3.13,3.77,4.52,5.79.47.69.54,1.42.14,2.18-.02.05-.04.09,0,.13l-.12.19Z"/>
      <path class="cls-1" d="m8.68,6.6c4.1.77,8.05,2.1,11.8,3.99,7.4,3.72,13.46,8.98,18.1,15.83-.02.12-.09.15-.15.19C25.65,35.11,12.86,43.62.09,52.12c-.13-.1-.09-.18-.07-.27.3-1.6.61-3.2.91-4.79.18-.95.34-1.9.52-2.85.36-1.86.72-3.73,1.08-5.59.17-.89.32-1.78.49-2.67.25-1.33.51-2.66.77-3.98.32-1.66.63-3.32.94-4.98.23-1.19.45-2.39.68-3.58.28-1.5.56-3,.85-4.5.29-1.51.58-3.03.86-4.54.32-1.72.64-3.44.97-5.16.15-.8.32-1.6.47-2.41.01-.06.02-.12.12-.2Zm10.17,19.06c-.57.95-.81,1.9-.61,2.93.21,1.08.76,1.96,1.67,2.58,1.04.7,2.19.91,3.4.55,1.21-.36,2.06-1.14,2.52-2.33.36-.92.36-1.84.02-2.76-.29-.79-.79-1.43-1.47-1.92-.55-.39-1.16-.61-1.83-.68-1.57-.17-2.79.44-3.7,1.62Zm-2.61-13.45c-.5-.33-1.05-.54-1.65-.63-.86-.13-1.66.03-2.41.42-.79.41-1.38,1.03-1.73,1.87-.49,1.15-.44,2.29.12,3.37.78,1.5,2.35,2.34,3.97,2.15,1.49-.18,2.61-.95,3.2-2.34.78-1.85.06-3.81-1.5-4.83Zm-11.49,29.35c1.67.4,3.11.07,4.28-1.13,1.22-1.26,1.56-2.78.96-4.42-.61-1.66-1.86-2.57-3.66-2.73-.52,2.75-1.05,5.49-1.58,8.28Z"/>
    </g>
  </g>
</svg>