<?xml version="1.0" encoding="UTF-8"?>
<svg id="Layer_2" data-name="Layer 2" xmlns="http://www.w3.org/2000/svg" viewBox="0 0 46.28 46.73">
  <defs>
    <style>
      .cls-1 {
        fill: #f47c2c;
      }
    </style>
  </defs>
  <g id="Layer_1-2" data-name="Layer 1">
    <path class="cls-1" d="m0,8.41v-.12c.07-.1.08-.22.11-.33.19-.68.44-1.33.83-1.92.19-.28.38-.56.68-.75.04-.03.07-.07.09-.11.14-.25.17-.52.1-.79-.07-.28-.2-.52-.32-.78-.01-.02-.03-.04-.05-.06-.22-.28-.26-.59-.16-.92.07-.25.27-.35.52-.3.05-.03.07-.08.1-.12.06-.11.09-.23.13-.34.05-.16.09-.33.16-.48.1-.21.29-.29.52-.22.09.02.16.07.24.11.11.06.18.04.23-.07.03-.07.06-.15.07-.22.04-.21.08-.42.11-.63.02-.09.06-.18.12-.24.07-.07.16-.1.26-.06.12.05.22.13.32.21.14.11.27.24.42.33.19.11.33.07.42-.12.09-.2.25-.33.44-.42.2-.09.33,0,.4.14.03.05.04.11.06.16.03.08.05.16.08.23.08.19.17.23.37.19.12-.03.24-.03.36-.02.25.02.42.15.47.37.02.1.03.2.01.3-.03.15.04.24.16.31.1.06.19.11.29.17.09.06.13.14.14.24,0,.14-.02.28-.05.42-.02.08-.05.16-.06.26.04,0,.07,0,.1,0,.34-.01.67.06.99.16.5.17.95.43,1.37.73.46.32.89.7,1.26,1.12.36.41.68.85.98,1.31.57.88,1.15,1.76,1.82,2.57.57.71,1.16,1.4,1.83,2.02.37.34.76.66,1.17.94,1.17.79,2.47,1.16,3.88,1.2.46.01.91-.02,1.37-.06.62-.06,1.24-.18,1.87-.24.43-.04.86-.09,1.29-.13.44-.04.87-.08,1.31-.13.51-.06,1.01-.12,1.52-.19.58-.09,1.15-.19,1.72-.33.8-.19,1.57-.45,2.31-.81.89-.44,1.67-1.02,2.36-1.74.63-.66,1.23-1.34,1.81-2.04.55-.66,1.08-1.34,1.61-2.02.3-.37.61-.73.99-1.03.39-.31.82-.51,1.33-.55.08,0,.16,0,.24-.02.23-.04.46-.06.7-.02.36.05.65.19.76.58.04.14.12.17.26.15.04,0,.08-.03.13-.04.08-.02.17-.05.26-.05.36,0,.67.2.82.55.12.27.17.55.17.84,0,.39-.02.78-.14,1.15-.02.07-.04.14-.05.21-.03.16.04.22.19.2,0,0,.02,0,.03,0,.18-.03.36-.07.55-.1.27-.04.55-.07.83-.01.19.04.35.11.44.3.1.21.11.42.02.64-.05.13-.13.24-.23.34-.19.2-.41.35-.64.51-.06.04-.12.08-.17.13-.03.04-.05.07-.01.12.07.04.16.06.24.07.17.03.32.1.44.23.23.23.26.42.13.71-.12.26-.31.45-.53.63-.28.22-.59.39-.9.56-.32.17-.64.33-.94.52-.04.03-.09.05-.12.1.05.04.1.01.14,0,.24-.06.48-.08.72-.05.26.03.51.08.76.16.39.11.77.26,1.17.37.15.04.29.07.44.1.1.02.14.07.14.18-.42.22-.72.56-.99.95-.11.15-.21.3-.32.46-.29.43-.66.76-1.13.98-.2.09-.4.18-.59.28-.19.1-.39.17-.58.28-.04.03-.08.05-.12.08-.09.09-.08.16.03.21.05.02.1.04.15.06.07.02.13.06.18.12.26.35.62.59,1.01.77.16.07.31.14.47.21.04.02.1.03.12.08.01.06-.02.1-.05.14-.12.18-.26.34-.42.48-.28.25-.59.44-.9.64-.37.23-.72.48-1.04.78-.36.34-.66.73-.99,1.09-.06.07-.11.15-.15.23-.06.13-.02.21.13.21.06,0,.12,0,.17,0,.21-.03.42-.07.63-.14.06-.02.13-.07.18,0,.04.07-.03.12-.06.16-.18.24-.4.44-.63.62-.27.21-.55.42-.79.67-.11.11-.22.22-.29.37-.09.18-.03.27.16.28.02,0,.04,0,.06,0,.3-.03.58-.13.83-.28.06-.04.13-.07.21-.12-.03.09-.06.17-.12.24-.15.19-.33.35-.52.48-.24.17-.51.31-.77.44-.5.25-.97.54-1.36.95-.29.31-.54.64-.79.97-.29.39-.58.78-.93,1.12-.26.25-.53.5-.8.74-.36.33-.71.66-1.03,1.03-.19.22-.36.45-.49.7-.03.06-.07.12-.04.19.06.02.11-.01.15-.04.09-.05.17-.09.26-.14.11-.06.21-.12.33-.16.31-.09.63-.16.95-.2.06,0,.12-.02.17.01.04.11.04.12-.05.18-.22.15-.43.32-.62.51-.26.26-.5.54-.73.83-.29.35-.56.71-.87,1.04-.03.03-.05.06-.06.12.06-.03.1-.05.15-.07.31-.18.63-.32.98-.42.21-.06.42-.11.64-.14.06,0,.1,0,.13.06-.24.21-.47.43-.71.63-.68.58-1.3,1.2-1.85,1.9-.23.3-.48.58-.76.83-.61.52-1.26.99-1.98,1.35-.03.01-.07.02-.07.08.17-.02.33-.04.5-.08.17-.03.34-.08.51-.13.16-.05.3-.13.47-.17,0,.02,0,.04,0,.04-.23.21-.44.43-.68.64-.54.49-1.11.93-1.74,1.29-.56.32-1.14.56-1.77.68-.44.08-.88.14-1.32.21-.43.07-.86.16-1.27.33-.08.03-.14.08-.2.14-.23.26-.45.51-.65.78-.71.92-1.26,1.93-1.7,3-.16.39-.3.78-.41,1.18-.07.26-.02.34.24.4.23.05.45.14.65.26.08.05.16.09.24.14.23.14.47.25.73.31.33.08.64.19.94.36.19.1.36.22.52.37.04.03.05.07.04.12-.02.05-.06.07-.1.06-.05,0-.1-.01-.14-.02-.19-.02-.38-.04-.57-.03-.35.02-.7.05-1.05.05-.34,0-.68-.06-1-.18-.28-.11-.56-.19-.85-.25-.33-.07-.65-.1-.99-.04-.28.05-.55.13-.82.2-.01,0-.03.01-.03.04.4.38.66.85.88,1.35-.07.08-.12.04-.17.01-.2-.09-.39-.19-.59-.28-.33-.15-.67-.29-1.03-.36-.46-.1-.93-.09-1.39-.07-.11,0-.2.04-.29.11-.07.05-.14.1-.22.14-.59.29-1.2.37-1.84.22-.36-.09-.72-.2-1.09-.26-.4-.07-.79-.07-1.16.14-.37.2-.77.2-1.16.05-.18-.07-.36-.15-.53-.23-.47-.24-.96-.3-1.47-.25-.1,0-.19.02-.27.09-.04.04-.1.06-.15.09-.29.19-.54.41-.7.73-.02.03-.04.06-.06.1h-.12c-.05-.06-.07-.13-.06-.2.01-.08.02-.15.03-.23.07-.39.23-.74.5-1.04.53-.58,1.18-.79,1.95-.66.21.03.41.07.62.11.29.05.57.06.85-.01.21-.05.4-.16.58-.26.35-.21.73-.32,1.14-.31.34,0,.67.05,1,.09.19.02.38.05.57.04.04-.03.05-.07.07-.1.19-.36.37-.73.56-1.09.28-.54.55-1.08.75-1.64.16-.44.31-.88.52-1.3,0-.01,0-.03-.01-.04-.02-.01-.04,0-.06,0-.47.11-.91.04-1.31-.23-.24-.16-.43-.36-.61-.59-.34-.44-.6-.93-.84-1.43-.3-.63-.6-1.25-.94-1.86-.3-.53-.68-.98-1.15-1.36-.45-.36-.93-.67-1.41-.98-.52-.33-1.04-.66-1.52-1.06-.02-.02-.04-.05-.07-.03.02.08.07.15.1.22.18.4.39.78.62,1.15.06.1.12.2.17.3.02.04.03.07-.03.11-.3-.15-.59-.32-.89-.5-.29-.18-.57-.39-.84-.61-.26-.22-.48-.48-.73-.71.07.26.2.48.35.7.15.22.34.41.52.59-.03.07-.07.08-.12.06-.05-.02-.09-.04-.13-.06-.55-.27-.99-.68-1.37-1.16-.33-.43-.59-.9-.83-1.39-.3-.61-.6-1.22-.96-1.8-.3-.47-.63-.91-1.02-1.31-.03-.03-.05-.07-.1-.07,0,.01,0,.02,0,.03.07.32.16.64.26.95.07.21.16.42.24.63.02.05.04.09,0,.14-.03.04-.08.03-.12.01-.01-.02-.03-.04-.04-.06-.37-.58-.77-1.15-1.12-1.74-.31-.52-.58-1.07-.76-1.65-.12-.39-.2-.8-.27-1.21,0-.04,0-.07-.05-.09-.04.25-.09.49-.21.71-.01.03-.01.05-.01.08,0,.05-.04.08-.08.08-.04,0-.08-.01-.1-.05-.02-.03-.03-.07-.03-.11-.28-1.09-.55-2.18-.79-3.27-.18-.78-.34-1.57-.49-2.35-.13-.67-.22-1.34-.26-2.02-.04-.72-.04-1.44.05-2.16.05-.43.13-.85.23-1.28.19-.79.5-1.54.87-2.27.23-.46.47-.9.71-1.36.11-.21.2-.42.26-.65.08-.32.03-.62-.18-.88-.06-.08-.12-.17-.19-.24-.22-.24-.35-.51-.4-.83-.04-.2-.07-.39-.12-.59-.02-.07-.01-.15-.07-.2-.25.06-.5.11-.74.17-.43.11-.85.23-1.24.46-.05.03-.09.03-.14.03Zm21.89,30.87s-.05,0-.07.01c-.18.08-.38.13-.57.16-.17.03-.33.06-.5.12-.4.14-.71.41-.97.74-.31.39-.53.83-.71,1.28-.2.49-.37.99-.56,1.49-.18.46-.39.91-.71,1.3-.02.02-.05.04-.03.08.42-.05.84-.03,1.25.05.28-.28.57-.53.86-.78.26-.23.51-.48.72-.76.22-.31.36-.67.49-1.02.32-.84.55-1.72.8-2.59,0-.03.02-.06,0-.08Z"/>
  </g>
</svg>